<svg width="150" height="150" viewBox="0 0 150 150" fill="none" xmlns="http://www.w3.org/2000/svg">
<path d="M9.375 137.109C9.37607 136.177 9.7468 135.284 10.4059 134.625C11.065 133.966 11.9585 133.595 12.8906 133.594H18.75V128.906H12.8906C10.715 128.906 8.62852 129.771 7.09014 131.309C5.55176 132.847 4.6875 134.934 4.6875 137.109C4.6875 139.285 5.55176 141.372 7.09014 142.91C8.62852 144.448 10.715 145.313 12.8906 145.313H56.25V140.625H12.8906C11.9585 140.624 11.065 140.253 10.4059 139.594C9.7468 138.935 9.37607 138.042 9.375 137.109Z" fill="#30504C"/>
<path d="M101.468 3.03012L92.0928 12.4052L95.4073 15.7197L104.782 6.34468L101.468 3.03012Z" fill="#30504C"/>
<path d="M110.843 10.0614L96.7803 24.1239L100.095 27.4385L114.157 13.376L110.843 10.0614Z" fill="#30504C"/>
<path d="M113.186 24.1239L99.124 38.1864L102.439 41.501L116.501 27.4385L113.186 24.1239Z" fill="#30504C"/>
<path d="M112.985 98.923C113.992 97.9168 114.683 96.6388 114.974 95.2457C115.265 93.8525 115.143 92.4046 114.624 91.0797C114.104 89.7547 113.209 88.6101 112.049 87.7862C110.888 86.9623 109.512 86.4949 108.09 86.4413C108.021 84.5985 107.258 82.85 105.954 81.546C104.65 80.2421 102.902 79.4791 101.059 79.41C100.99 77.5673 100.227 75.8187 98.9228 74.5148C97.6189 73.2108 95.8703 72.4479 94.0276 72.3788C93.9782 70.9733 93.5212 69.6125 92.7121 68.4621C94.253 67.9212 95.6521 67.0401 96.8055 65.8841L97.9721 64.7175L103.459 73.8623L107.478 71.4505L100.447 59.7317C100.264 59.4263 100.013 59.1667 99.7148 58.9726C99.4162 58.7785 99.0773 58.655 98.7238 58.6115C98.3703 58.568 98.0115 58.6056 97.6748 58.7215C97.338 58.8374 97.032 59.0285 96.7802 59.2804L93.491 62.5696C92.4603 63.5996 91.1021 64.2371 89.6512 64.3718C88.2003 64.5066 86.7479 64.1301 85.5451 63.3076L95.1358 53.5682C95.5688 53.1259 96.0856 52.7745 96.656 52.5343C97.2264 52.2942 97.839 52.1703 98.4579 52.1697C99.0772 52.1626 99.6915 52.2805 100.264 52.5164C100.837 52.7523 101.356 53.1013 101.79 53.5426L118.845 70.5969C119.063 70.814 119.236 71.0723 119.354 71.3568C119.472 71.6413 119.532 71.9464 119.531 72.2543V86.6002C119.529 87.5239 119.709 88.439 120.063 89.2924C120.416 90.1458 120.936 90.9207 121.591 91.5721L143.655 113.637L146.97 110.322L124.905 88.2576C124.687 88.0404 124.514 87.7821 124.396 87.4976C124.278 87.2131 124.218 86.9081 124.219 86.6002V72.2543C124.221 71.3305 124.04 70.4155 123.687 69.562C123.333 68.7086 122.814 67.9338 122.159 67.2824L105.105 50.2281C104.237 49.3547 103.204 48.6623 102.066 48.191C100.928 47.7196 99.7083 47.4787 98.4768 47.4821C98.4646 47.4821 98.4522 47.4823 98.4399 47.4823C97.2021 47.4834 95.977 47.7314 94.8362 48.2116C93.6954 48.6918 92.6618 49.3948 91.7959 50.2792L91.4474 50.6331L80.6582 39.8439L89.7489 30.7531C90.4018 30.1002 90.9198 29.3251 91.2731 28.4721C91.6264 27.619 91.8083 26.7047 91.8083 25.7814C91.8083 24.8581 91.6264 23.9438 91.2731 23.0907C90.9198 22.2377 90.4018 21.4625 89.7489 20.8097L75.2842 6.34489C74.6313 5.69199 73.8562 5.17408 73.0032 4.82073C72.1501 4.46739 71.2358 4.28552 70.3125 4.28552C69.3891 4.28552 68.4748 4.46739 67.6218 4.82073C66.7687 5.17408 65.9936 5.69199 65.3407 6.34489L36.8135 34.8722C36.1606 35.525 35.6427 36.3002 35.2893 37.1532C34.936 38.0063 34.7541 38.9206 34.7541 39.8439C34.7541 40.7672 34.936 41.6815 35.2893 42.5346C35.6427 43.3876 36.1606 44.1627 36.8135 44.8156L51.2782 59.2804C52.2872 60.294 53.5832 60.9732 54.9908 61.226L51.5624 64.6544L43.8447 56.9366C43.4052 56.4971 42.809 56.2502 42.1874 56.2502C41.5659 56.2502 40.9697 56.4971 40.5302 56.9366L38.4708 58.996C37.3089 60.1597 36.4734 61.6084 36.0481 63.197C35.6228 64.7855 35.6226 66.4579 36.0477 68.0465C34.5611 68.2676 33.1857 68.9627 32.1259 70.0284L21.4958 80.6585C20.6225 81.527 19.9302 82.5601 19.4589 83.698C18.9876 84.8359 18.7466 86.0559 18.7499 87.2875V90.8378C18.7466 92.0694 18.9875 93.2894 19.4589 94.4273C19.9302 95.5652 20.6225 96.5983 21.4958 97.4668L22.4667 98.4377L20.123 100.781H14.0624C13.6038 100.781 13.1552 100.916 12.7722 101.169C12.3893 101.421 12.0889 101.78 11.9082 102.202L4.877 118.608C4.69248 119.039 4.64121 119.515 4.72979 119.975C4.81837 120.435 5.04274 120.857 5.37396 121.189L10.0615 125.876C10.3927 126.207 10.8155 126.432 11.2755 126.52C11.7355 126.609 12.2114 126.558 12.642 126.373L29.0482 119.342C29.4698 119.161 29.8291 118.861 30.0816 118.478C30.3341 118.095 30.4687 117.646 30.4687 117.188V111.127L32.8124 108.783L33.0968 109.068C34.1825 110.159 35.4738 111.025 36.8962 111.614C38.3186 112.203 39.8437 112.504 41.3832 112.5H45.9042L80.3739 146.97L83.6884 143.655L48.5322 108.499C48.3146 108.281 48.0562 108.109 47.7719 107.991C47.4875 107.873 47.1827 107.813 46.8749 107.813H41.3832C40.4595 107.815 39.5444 107.634 38.691 107.281C37.8376 106.927 37.0627 106.408 36.4113 105.753L24.8103 94.1523C24.3737 93.718 24.0275 93.2015 23.7919 92.6325C23.5562 92.0636 23.4358 91.4536 23.4374 90.8378V87.2875C23.4358 86.6717 23.5562 86.0617 23.7919 85.4928C24.0275 84.9238 24.3737 84.4073 24.8103 83.973L35.4404 73.3429C35.6576 73.1246 35.9159 72.9515 36.2004 72.8336C36.4849 72.7158 36.7899 72.6556 37.0978 72.6564H38.873L49.9052 83.6886L53.2197 80.3742L41.7853 68.9398C40.9063 68.0607 40.4125 66.8684 40.4125 65.6251C40.4125 64.3819 40.9063 63.1896 41.7853 62.3105L42.1874 61.9084L62.5947 82.3156C62.813 82.5328 62.9861 82.7911 63.104 83.0756C63.2218 83.3601 63.282 83.6651 63.2812 83.973V98.4377C63.2812 98.7454 63.3418 99.0502 63.4596 99.3346C63.5774 99.6189 63.75 99.8773 63.9677 100.095L110.843 146.97L114.157 143.655L67.9687 97.4669V83.973C67.9726 82.4429 67.4734 80.9539 66.548 79.7354L72.1708 74.1125C73.4875 72.7929 74.2269 71.0049 74.2269 69.1408C74.2269 67.2766 73.4875 65.4886 72.1708 64.169L67.0811 59.0793C66.0698 58.067 64.772 57.3897 63.3633 57.1388L67.9687 52.5334L80.3739 64.9386L80.3929 64.9197C80.4315 64.9646 80.47 65.0095 80.5126 65.0521L81.3446 65.8841C81.6648 66.2029 82.0043 66.5016 82.3614 66.7785C82.0728 66.9934 81.8002 67.229 81.5458 67.4835L72.1708 76.8585C71.1642 77.8647 70.4731 79.1427 70.1821 80.5359C69.8911 81.9291 70.0128 83.3769 70.5325 84.7019C71.0521 86.0269 71.9471 87.1715 73.1076 87.9954C74.2681 88.8192 75.6438 89.2867 77.0661 89.3403C77.1352 91.183 77.8981 92.9316 79.2021 94.2355C80.506 95.5395 82.2546 96.3024 84.0973 96.3715C84.1415 97.5141 84.4527 98.6305 85.006 99.6311C85.5592 100.632 86.3392 101.489 87.2835 102.134C88.2277 102.779 89.3098 103.194 90.4432 103.345C91.5766 103.496 92.7296 103.38 93.81 103.006C94.1309 104.009 94.6646 104.932 95.3745 105.71C96.0845 106.488 96.9541 107.104 97.9239 107.515C98.8936 107.927 99.9408 108.124 100.994 108.094C102.047 108.064 103.081 107.807 104.025 107.34L143.655 146.97L146.97 143.655L107.611 104.297L112.985 98.923ZM25.7812 101.752L29.498 105.469L26.4677 108.499C26.25 108.717 26.0774 108.975 25.9596 109.259C25.8418 109.544 25.7812 109.849 25.7812 110.156V115.642L12.254 121.44L9.81054 118.996L15.608 105.469H21.0937C21.4015 105.469 21.7063 105.408 21.9906 105.29C22.275 105.173 22.5333 105 22.7509 104.782L25.7812 101.752ZM68.6552 9.65938C69.0951 9.2205 69.6911 8.97403 70.3124 8.97403C70.9338 8.97403 71.5298 9.2205 71.9697 9.65938L86.4344 24.1241C86.8733 24.564 87.1198 25.16 87.1198 25.7814C87.1198 26.4028 86.8733 26.9988 86.4344 27.4386L82.0312 31.8419L64.2519 14.0626L68.6552 9.65938ZM54.5927 55.9659L40.128 41.5012C39.6891 41.0613 39.4426 40.4653 39.4426 39.8439C39.4426 39.2225 39.6891 38.6265 40.128 38.1867L44.5312 33.7834L62.3105 51.5626L57.9072 55.9659C57.4673 56.4048 56.8713 56.6513 56.2499 56.6513C55.6286 56.6513 55.0326 56.4048 54.5927 55.9659ZM63.7666 62.3938L68.8563 67.4835C69.2958 67.9231 69.5427 68.5192 69.5427 69.1408C69.5427 69.7623 69.2958 70.3584 68.8563 70.798L63.2812 76.3732L54.8769 67.9689L60.4521 62.3938C60.8916 61.9543 61.4878 61.7074 62.1093 61.7074C62.7309 61.7074 63.327 61.9543 63.7666 62.3938ZM65.6249 48.2481L47.8457 30.4689L60.9374 17.3771L78.7167 35.1564L65.6249 48.2481ZM82.1445 60.0802L71.2832 49.2189L77.3437 43.1584L88.1584 53.9731L82.1445 60.0802ZM77.3437 84.6595C76.8239 84.6595 76.3158 84.5054 75.8836 84.2166C75.4514 83.9278 75.1145 83.5174 74.9156 83.0371C74.7167 82.5569 74.6646 82.0285 74.7661 81.5187C74.8675 81.0089 75.1178 80.5406 75.4853 80.173L84.8603 70.798C85.3532 70.3051 86.0217 70.0282 86.7187 70.0282C87.4157 70.0282 88.0842 70.3051 88.5771 70.798C89.0699 71.2909 89.3468 71.9594 89.3468 72.6564C89.3468 73.3534 89.0699 74.0219 88.5771 74.5148L79.2021 83.8898C78.9586 84.1346 78.669 84.3287 78.35 84.4608C78.031 84.5929 77.689 84.6605 77.3437 84.6595ZM84.3749 91.6908C83.8551 91.6908 83.347 91.5366 82.9148 91.2479C82.4826 90.9591 82.1458 90.5486 81.9469 90.0684C81.7479 89.5882 81.6959 89.0597 81.7973 88.5499C81.8987 88.0401 82.149 87.5718 82.5166 87.2043L91.8916 77.8293C92.1356 77.5852 92.4253 77.3916 92.7442 77.2596C93.0631 77.1275 93.4048 77.0595 93.7499 77.0595C94.0951 77.0595 94.4368 77.1275 94.7557 77.2596C95.0746 77.3916 95.3643 77.5852 95.6083 77.8293C95.8524 78.0733 96.046 78.363 96.178 78.6819C96.3101 79.0007 96.3781 79.3425 96.3781 79.6876C96.3781 80.0328 96.3101 80.3745 96.178 80.6934C96.046 81.0122 95.8524 81.302 95.6083 81.546L86.2333 90.921C85.9898 91.1658 85.7002 91.3599 85.3812 91.492C85.0622 91.6242 84.7202 91.6917 84.3749 91.6908ZM93.2646 97.9523C93.0205 98.1963 92.7308 98.3899 92.4119 98.522C92.0931 98.6541 91.7513 98.722 91.4062 98.722C91.0611 98.722 90.7193 98.6541 90.4005 98.522C90.0816 98.3899 89.7919 98.1963 89.5478 97.9523C89.3038 97.7082 89.1102 97.4185 88.9781 97.0996C88.846 96.7808 88.7781 96.439 88.7781 96.0939C88.7781 95.7488 88.846 95.407 88.9781 95.0882C89.1102 94.7693 89.3038 94.4796 89.5478 94.2355L98.9228 84.8605C99.4157 84.3676 100.084 84.0908 100.781 84.0908C101.478 84.0908 102.147 84.3676 102.64 84.8605C103.132 85.3534 103.409 86.0219 103.409 86.7189C103.409 87.4159 103.132 88.0844 102.64 88.5773L95.6083 95.6085L93.2646 97.9523ZM102.64 102.64C102.147 103.133 101.478 103.41 100.781 103.41C100.084 103.41 99.4157 103.133 98.9228 102.64C98.4299 102.147 98.1531 101.478 98.1531 100.781C98.1531 100.084 98.4299 99.4159 98.9228 98.923L105.954 91.8918C106.447 91.3989 107.115 91.122 107.812 91.122C108.509 91.122 109.178 91.3989 109.671 91.8918C110.164 92.3846 110.441 93.0531 110.441 93.7501C110.441 94.4472 110.164 95.1157 109.671 95.6085L102.64 102.64Z" fill="#30504C"/>
<path d="M23.1035 33.9503L19.084 36.362L26.1153 48.0808L30.1348 45.6691L23.1035 33.9503Z" fill="#30504C"/>
<path d="M7.49108 46.9206L6.57178 51.517L18.2905 53.8608L19.2098 49.2643L7.49108 46.9206Z" fill="#30504C"/>
<path d="M22.232 58.9274L10.5132 65.9588L12.9249 69.9783L24.6437 62.9469L22.232 58.9274Z" fill="#30504C"/>
<path d="M38.2411 117.308L36.7588 121.755L43.79 124.099L45.2723 119.652L38.2411 117.308Z" fill="#30504C"/>
<path d="M29.7823 129.593L26.4678 132.907L31.1552 137.595L34.4697 134.28L29.7823 129.593Z" fill="#30504C"/>
<path d="M41.5011 127.249L38.1865 130.564L42.8739 135.251L46.1885 131.937L41.5011 127.249Z" fill="#30504C"/>
<path d="M133.594 70.3126H138.281C138.278 67.2056 137.042 64.227 134.845 62.03C132.648 59.8331 129.669 58.5973 126.562 58.5938V63.2813C128.427 63.2834 130.214 64.0249 131.532 65.343C132.85 66.6612 133.592 68.4484 133.594 70.3126ZM140.625 60.9376H145.312C145.31 58.452 144.321 56.0691 142.564 54.3115C140.806 52.554 138.423 51.5654 135.938 51.5626V56.2501C137.18 56.2515 138.372 56.7458 139.25 57.6246C140.129 58.5033 140.624 59.6948 140.625 60.9376Z" fill="#30504C"/>
</svg>
