<svg width="107" height="107" viewBox="0 0 107 107" fill="none" xmlns="http://www.w3.org/2000/svg">
<circle cx="53.6966" cy="53.16" r="51.831" fill="#D9D9D9" stroke="black" stroke-width="2.658"/>
<path d="M31.1876 53.6306H31.961V54.6892C31.961 55.5315 32.314 56.3393 32.9424 56.9349C33.5707 57.5305 34.423 57.8651 35.3116 57.8651C36.2002 57.8651 37.0524 57.5305 37.6808 56.9349C38.3091 56.3393 38.6621 55.5315 38.6621 54.6892V53.6306H68.8169V54.6892C68.8169 55.5315 69.1699 56.3393 69.7982 56.9349C70.4266 57.5305 71.2788 57.8651 72.1674 57.8651C73.056 57.8651 73.9082 57.5305 74.5366 56.9349C75.1649 56.3393 75.5179 55.5315 75.5179 54.6892V53.6306H76.2914C77.2745 53.6257 78.2155 53.2514 78.9079 52.5899C79.6004 51.9284 79.9878 51.0335 79.9853 50.1016V38.9859C79.9865 38.3796 79.7339 37.7976 79.2829 37.3676C78.8319 36.9376 78.2193 36.6948 77.5796 36.6924H77.1932V34.8398C77.1766 33.9132 76.7731 33.0308 76.0711 32.3858C75.3691 31.7408 74.426 31.3861 73.4484 31.3992H34.0306C33.053 31.3861 32.1099 31.7408 31.4079 32.3858C30.7059 33.0308 30.3024 33.9132 30.2858 34.8398V36.6924H29.8993C29.2597 36.6948 28.6471 36.9376 28.1961 37.3676C27.7451 37.7976 27.4925 38.3796 27.4937 38.9859V50.1016C27.4911 51.0335 27.8786 51.9284 28.5711 52.5899C29.2635 53.2514 30.2045 53.6257 31.1876 53.6306ZM36.4284 54.6892C36.4284 54.97 36.3107 55.2393 36.1013 55.4378C35.8919 55.6363 35.6078 55.7479 35.3116 55.7479C35.0154 55.7479 34.7313 55.6363 34.5218 55.4378C34.3124 55.2393 34.1947 54.97 34.1947 54.6892V53.6306H36.4284V54.6892ZM73.2843 54.6892C73.2843 54.97 73.1666 55.2393 72.9571 55.4378C72.7477 55.6363 72.4636 55.7479 72.1674 55.7479C71.8712 55.7479 71.5871 55.6363 71.3777 55.4378C71.1682 55.2393 71.0506 54.97 71.0506 54.6892V53.6306H73.2843V54.6892ZM32.5195 34.8398C32.5357 34.4747 32.7038 34.1306 32.987 33.8826C33.2701 33.6346 33.6453 33.503 34.0306 33.5165H73.4484C73.8337 33.503 74.2089 33.6346 74.492 33.8826C74.7752 34.1306 74.9433 34.4747 74.9595 34.8398V36.6924H74.4134C74.1148 36.6752 73.8157 36.718 73.5357 36.8182C73.2558 36.9183 73.0014 37.0735 72.7893 37.2735C72.5772 37.4734 72.4121 37.7137 72.3049 37.9785C72.1977 38.2432 72.1509 38.5265 72.1674 38.8097V41.4563H57.09C56.4978 41.4568 55.93 41.6801 55.5112 42.077C55.0925 42.474 54.8569 43.0122 54.8563 43.5735V46.2201H52.6226V43.5735C52.6221 43.0122 52.3865 42.474 51.9678 42.077C51.549 41.6801 50.9812 41.4568 50.389 41.4563H35.3116V38.8097C35.3281 38.5265 35.2813 38.2432 35.1741 37.9785C35.0669 37.7137 34.9018 37.4734 34.6897 37.2735C34.4775 37.0735 34.2232 36.9183 33.9432 36.8182C33.6633 36.718 33.3642 36.6752 33.0656 36.6924H32.5195V34.8398ZM72.1674 43.5735V46.2201H57.09V43.5735H72.1674ZM50.389 43.5735V46.2201H35.3116V43.5735H50.389ZM29.7274 38.9859C29.7257 38.941 29.7428 38.8972 29.775 38.8642C29.8073 38.8312 29.8519 38.8116 29.8993 38.8097H33.0779V46.2201C33.0606 46.5025 33.1065 46.7851 33.2127 47.0494C33.3188 47.3137 33.4828 47.5537 33.6937 47.7537C33.9047 47.9536 34.1579 48.109 34.4367 48.2096C34.7156 48.3102 35.0137 48.3538 35.3116 48.3374H71.609C72.9816 48.3374 74.4011 47.5455 74.4011 46.2201V38.8097H77.5796C77.6271 38.8115 77.6719 38.831 77.7041 38.8641C77.7364 38.8971 77.7534 38.941 77.7516 38.9859V50.1016C77.7551 50.4723 77.6032 50.829 77.3295 51.0937C77.0557 51.3584 76.6824 51.5093 76.2914 51.5133H31.1876C30.7967 51.5091 30.4234 51.3582 30.1497 51.0935C29.8759 50.8289 29.7241 50.4722 29.7274 50.1016V38.9859Z" fill="black"/>
<path d="M62.0611 64.6245C63.9374 63.9306 65.1871 62.9212 65.1871 61.5704C65.1871 58.6612 59.398 57.3358 54.0187 57.3358C48.6394 57.3358 42.8503 58.6612 42.8503 61.5704C42.8503 62.7963 43.8811 63.7406 45.4737 64.4234L41.4911 78.7684C41.4518 78.9035 41.4411 79.0446 41.4598 79.1835C41.4784 79.3225 41.5259 79.4566 41.5996 79.578C41.6733 79.6994 41.7717 79.8057 41.8891 79.8908C42.0065 79.9759 42.1405 80.0381 42.2834 80.0738C42.4263 80.1094 42.5753 80.1178 42.7217 80.0985C42.868 80.0792 43.0089 80.0326 43.1361 79.9613C43.2633 79.89 43.3743 79.7955 43.4627 79.6832C43.5511 79.5709 43.6151 79.4432 43.651 79.3073L45.4894 72.686H61.9896L63.8274 79.3073C63.9088 79.5753 64.0961 79.8033 64.3502 79.9438C64.6044 80.0844 64.9059 80.1268 65.1922 80.0621C65.4787 79.9906 65.7236 79.8142 65.8729 79.5716C66.0223 79.329 66.0638 79.0401 65.9885 78.7684L62.0611 64.6245ZM46.0779 70.5688L47.5929 65.1104C49.6972 65.5882 51.855 65.8214 54.0187 65.8049C56.0019 65.816 57.9806 65.6236 59.9201 65.2311L61.401 70.5688H46.0779ZM54.0187 63.6876C48.1558 63.6876 45.084 62.1145 45.084 61.5704C45.084 61.0262 48.1558 59.4531 54.0187 59.4531C59.8816 59.4531 62.9535 61.0262 62.9535 61.5704C62.9535 62.1145 59.8816 63.6876 54.0187 63.6876ZM86.128 46.2201C85.2486 46.2211 84.4048 46.5494 83.7782 47.1343C83.1517 47.7192 82.7925 48.5139 82.778 49.3473L81.6606 62.0997H69.3753C68.5851 62.0992 67.8202 62.3636 67.2159 62.8461C66.6116 63.3287 66.2068 63.9983 66.0731 64.7365C65.9394 65.4747 66.0854 66.2339 66.4854 66.8798C66.8853 67.5258 67.5134 68.0169 68.2585 68.2662V77.9792C68.2591 78.5406 68.4946 79.0788 68.9133 79.4757C69.3321 79.8727 69.8999 80.0959 70.4921 80.0965H72.7258C73.3181 80.0959 73.8859 79.8727 74.3046 79.4757C74.7234 79.0788 74.9589 78.5406 74.9595 77.9792V68.4515H79.4269V77.9792C79.4275 78.5406 79.663 79.0788 80.0818 79.4757C80.5006 79.8727 81.0684 80.0959 81.6606 80.0965H83.8943C84.4865 80.0959 85.0543 79.8727 85.4731 79.4757C85.8918 79.0788 86.1274 78.5406 86.128 77.9792V68.2662C86.7738 68.0493 87.334 67.6501 87.7334 67.1224C88.1327 66.5946 88.352 65.9636 88.3616 65.3142L89.4785 49.396C89.4775 48.554 89.1241 47.7468 88.496 47.1514C87.8679 46.556 87.0163 46.2211 86.128 46.2201ZM72.7258 77.9792H70.4921V68.4515H72.7258V77.9792ZM83.8943 77.9792H81.6606V68.4515H83.8943V77.9792ZM86.128 65.2756C86.1275 65.5562 86.0097 65.8252 85.8004 66.0237C85.591 66.2221 85.3072 66.3338 85.0111 66.3342H69.3753C69.0791 66.3342 68.795 66.2227 68.5856 66.0242C68.3761 65.8256 68.2585 65.5564 68.2585 65.2756C68.2585 64.9948 68.3761 64.7255 68.5856 64.527C68.795 64.3285 69.0791 64.2169 69.3753 64.2169H81.6606C82.2434 64.2163 82.803 64 83.2201 63.6141C83.6372 63.2283 83.8789 62.7033 83.8937 62.151L85.0111 49.396C85.0121 49.1185 85.1281 48.8524 85.3341 48.6551C85.54 48.4578 85.8195 48.345 86.1123 48.3411C86.4051 48.3372 86.6878 48.4425 86.8995 48.6343C87.1113 48.826 87.235 49.089 87.2442 49.3664L86.128 65.2756ZM38.1037 62.0997H25.8184L24.701 49.3473C24.6851 48.5109 24.3216 47.7142 23.6895 47.1303C23.0575 46.5464 22.2079 46.2224 21.3253 46.2289C20.4428 46.2353 19.5985 46.5715 18.976 47.1645C18.3534 47.7575 18.0029 48.5594 18.0005 49.396L18.0033 49.4664L19.1173 65.3142C19.127 65.9636 19.3463 66.5946 19.7456 67.1224C20.145 67.6501 20.7052 68.0493 21.351 68.2662V77.9792C21.3516 78.5406 21.5871 79.0788 22.0059 79.4757C22.4247 79.8727 22.9925 80.0959 23.5847 80.0965H25.8184C26.4106 80.0959 26.9784 79.8727 27.3972 79.4757C27.816 79.0788 28.0515 78.5406 28.0521 77.9792V68.4515H32.5195V77.9792C32.52 78.5406 32.7556 79.0788 33.1743 79.4757C33.5931 79.8727 34.1609 80.0959 34.7531 80.0965H36.9868C37.5791 80.0959 38.1469 79.8727 38.5656 79.4757C38.9844 79.0788 39.2199 78.5406 39.2205 77.9792V68.2662C39.9656 68.0169 40.5937 67.5258 40.9936 66.8798C41.3936 66.2339 41.5396 65.4747 41.4059 64.7365C41.2722 63.9983 40.8674 63.3287 40.2631 62.8461C39.6587 62.3636 38.8938 62.0992 38.1037 62.0997ZM25.8184 77.9792H23.5847V68.4515H25.8184V77.9792ZM36.9868 77.9792H34.7531V68.4515H36.9868V77.9792ZM38.1037 66.3342H22.4679C22.1718 66.3338 21.888 66.2221 21.6786 66.0237C21.4693 65.8252 21.3515 65.5562 21.351 65.2756L21.3482 65.2052L20.2347 49.3664C20.2439 49.089 20.3677 48.826 20.5794 48.6343C20.7912 48.4425 21.0739 48.3372 21.3667 48.3411C21.6595 48.345 21.939 48.4578 22.1449 48.6551C22.3509 48.8524 22.4669 49.1185 22.4679 49.396L23.5853 62.151C23.6001 62.7033 23.8418 63.2283 24.2589 63.6141C24.676 64 25.2356 64.2163 25.8184 64.2169H38.1037C38.3999 64.2169 38.684 64.3285 38.8934 64.527C39.1029 64.7255 39.2205 64.9948 39.2205 65.2756C39.2205 65.5564 39.1029 65.8256 38.8934 66.0242C38.684 66.2227 38.3999 66.3342 38.1037 66.3342Z" fill="black"/>
</svg>
