<svg width="107" height="107" viewBox="0 0 107 107" fill="none" xmlns="http://www.w3.org/2000/svg">
<circle cx="53.1605" cy="53.16" r="51.831" fill="#D9D9D9" stroke="black" stroke-width="2.658"/>
<path d="M91.448 70.3565H84.4983C84.1296 70.3565 83.7761 70.213 83.5154 69.9576C83.2547 69.7021 83.1083 69.3557 83.1083 68.9944V45.8384C83.1083 45.4771 83.2547 45.1307 83.5154 44.8752C83.7761 44.6198 84.1296 44.4763 84.4983 44.4763H91.448C91.8167 44.4763 92.1702 44.6198 92.4309 44.8752C92.6916 45.1307 92.838 45.4771 92.838 45.8384V68.9944C92.838 69.3557 92.6916 69.7021 92.4309 69.9576C92.1702 70.213 91.8167 70.3565 91.448 70.3565ZM85.8882 67.6323H90.0581V47.2005H85.8882V67.6323ZM23.3402 70.3565H16.3904C16.0218 70.3565 15.6683 70.213 15.4076 69.9576C15.1469 69.7021 15.0005 69.3557 15.0005 68.9944V45.8384C15.0005 45.4771 15.1469 45.1307 15.4076 44.8752C15.6683 44.6198 16.0218 44.4763 16.3904 44.4763H23.3402C23.7089 44.4763 24.0624 44.6198 24.3231 44.8752C24.5837 45.1307 24.7302 45.4771 24.7302 45.8384V68.9944C24.7302 69.3557 24.5837 69.7021 24.3231 69.9576C24.0624 70.213 23.7089 70.3565 23.3402 70.3565ZM17.7804 67.6323H21.9503V47.2005H17.7804V67.6323Z" fill="black"/>
<path d="M83.8031 71.7187H24.035C23.6663 71.7187 23.3128 71.5752 23.0521 71.3197C22.7915 71.0643 22.645 70.7178 22.645 70.3566V59.4596C22.645 59.0983 22.7915 58.7519 23.0521 58.4964C23.3128 58.241 23.6663 58.0975 24.035 58.0975H83.8031C84.1717 58.0975 84.5252 58.241 84.7859 58.4964C85.0466 58.7519 85.193 59.0983 85.193 59.4596V70.3566C85.193 70.7178 85.0466 71.0643 84.7859 71.3197C84.5252 71.5752 84.1717 71.7187 83.8031 71.7187ZM25.4249 68.9944H82.4131V60.8217H25.4249V68.9944Z" fill="black"/>
<path d="M83.8031 60.8217H24.035C23.6663 60.8217 23.3128 60.6782 23.0521 60.4228C22.7915 60.1673 22.645 59.8208 22.645 59.4596V56.8361C22.6461 55.726 23.0966 54.6616 23.8977 53.8766C24.6987 53.0916 25.7849 52.6501 26.9177 52.649H80.9203C82.0531 52.6501 83.1393 53.0916 83.9403 53.8766C84.7414 54.6616 85.1919 55.726 85.193 56.8361V59.4596C85.193 59.8208 85.0466 60.1673 84.7859 60.4228C84.5252 60.6782 84.1717 60.8217 83.8031 60.8217ZM25.4249 58.0975H82.4131V56.8361C82.4127 56.4483 82.2553 56.0764 81.9755 55.8021C81.6956 55.5278 81.3161 55.3736 80.9203 55.3732H26.9177C26.5219 55.3736 26.1424 55.5278 25.8626 55.8021C25.5827 56.0764 25.4253 56.4483 25.4249 56.8361V58.0975Z" fill="black"/>
<path d="M43.9586 55.3732H24.035C23.6663 55.3732 23.3128 55.2297 23.0521 54.9743C22.7915 54.7188 22.645 54.3724 22.645 54.0111V39.1286C22.6461 38.0184 23.0966 36.954 23.8977 36.169C24.6987 35.384 25.7849 34.9425 26.9177 34.9414H41.0758C42.2084 34.9428 43.2942 35.3845 44.095 36.1695C44.8957 36.9544 45.3461 38.0186 45.3472 39.1286V54.0111C45.3472 54.3724 45.2007 54.7188 44.9401 54.9743C44.6794 55.2297 44.3272 55.3732 43.9586 55.3732ZM25.4249 52.649H42.5686V39.1286C42.5683 38.7407 42.4109 38.3688 42.131 38.0945C41.8511 37.8203 41.4716 37.666 41.0758 37.6656H26.9177C26.5219 37.666 26.1424 37.8203 25.8626 38.0945C25.5827 38.3688 25.4253 38.7407 25.4249 39.1286V52.649Z" fill="black"/>
<path d="M63.8796 55.3732H43.9588C43.5902 55.3732 43.2366 55.2297 42.976 54.9743C42.7153 54.7188 42.5688 54.3724 42.5688 54.0111V39.1286C42.57 38.0186 43.0203 36.9544 43.821 36.1695C44.6218 35.3845 45.7076 34.9428 46.8402 34.9414H60.9983C62.1309 34.9428 63.2167 35.3845 64.0174 36.1695C64.8182 36.9544 65.2685 38.0186 65.2696 39.1286V54.0111C65.2696 54.3724 65.1232 54.7188 64.8625 54.9743C64.6018 55.2297 64.2483 55.3732 63.8796 55.3732ZM45.3488 52.649H62.4911V39.1286C62.4907 38.7407 62.3333 38.3688 62.0534 38.0945C61.7736 37.8203 61.3941 37.666 60.9983 37.6656H46.8402C46.4444 37.666 46.0649 37.8203 45.785 38.0945C45.5051 38.3688 45.3477 38.7407 45.3474 39.1286L45.3488 52.649Z" fill="black"/>
<path d="M83.8035 55.3732H63.8799C63.5113 55.3732 63.1577 55.2297 62.897 54.9743C62.6364 54.7188 62.4899 54.3724 62.4899 54.0111V39.1286C62.491 38.0184 62.9416 36.954 63.7426 36.169C64.5437 35.384 65.6298 34.9425 66.7627 34.9414H80.9207C82.0536 34.9425 83.1398 35.384 83.9408 36.169C84.7419 36.954 85.1924 38.0184 85.1935 39.1286V54.0111C85.1935 54.3724 85.047 54.7188 84.7864 54.9743C84.5257 55.2297 84.1722 55.3732 83.8035 55.3732ZM65.2699 52.649H82.4136V39.1286C82.4132 38.7407 82.2558 38.3688 81.9759 38.0945C81.696 37.8203 81.3166 37.666 80.9207 37.6656H66.7627C66.3671 37.6664 65.988 37.8208 65.7084 38.095C65.4288 38.3692 65.2716 38.7409 65.2712 39.1286L65.2699 52.649ZM85.8885 73.0236C85.5198 73.0236 85.1663 72.8801 84.9056 72.6246C84.6449 72.3692 84.4985 72.0227 84.4985 71.6615V70.4151C84.4985 70.0539 84.6449 69.7074 84.9056 69.452C85.1663 69.1965 85.5198 69.053 85.8885 69.053C86.2571 69.053 86.6106 69.1965 86.8713 69.452C87.132 69.7074 87.2784 70.0539 87.2784 70.4151V71.6615C87.2784 72.0227 87.132 72.3692 86.8713 72.6246C86.6106 72.8801 86.2571 73.0236 85.8885 73.0236ZM21.9505 73.0236C21.5819 73.0236 21.2283 72.8801 20.9677 72.6246C20.707 72.3692 20.5605 72.0227 20.5605 71.6615V70.4151C20.5605 70.0539 20.707 69.7074 20.9677 69.452C21.2283 69.1965 21.5819 69.053 21.9505 69.053C22.3191 69.053 22.6727 69.1965 22.9333 69.452C23.194 69.7074 23.3405 70.0539 23.3405 70.4151V71.6615C23.3405 72.0227 23.194 72.3692 22.9333 72.6246C22.6727 72.8801 22.3191 73.0236 21.9505 73.0236Z" fill="black"/>
</svg>
