<svg width="107" height="107" viewBox="0 0 107 107" fill="none" xmlns="http://www.w3.org/2000/svg">
<circle cx="53.1605" cy="53.16" r="51.831" fill="#D9D9D9" stroke="black" stroke-width="2.658"/>
<path d="M77.1789 23.4281H30.184C28.5447 23.4302 26.973 24.1175 25.8138 25.3394C24.6546 26.5613 24.0025 28.218 24.0005 29.946L24.0005 82.0892C24.0005 82.435 24.1308 82.7665 24.3627 83.011C24.5946 83.2555 24.9092 83.3928 25.2372 83.3928H26.4739V84.6964C26.4739 85.0421 26.6042 85.3737 26.8361 85.6182C27.0681 85.8626 27.3826 86 27.7106 86C28.0386 86 28.3532 85.8626 28.5851 85.6182C28.817 85.3737 28.9473 85.0421 28.9473 84.6964V83.3928H78.4157V84.6964C78.4157 85.0421 78.5459 85.3737 78.7779 85.6182C79.0098 85.8626 79.3244 86 79.6524 86C79.9804 86 80.2949 85.8626 80.5268 85.6182C80.7588 85.3737 80.8891 85.0421 80.8891 84.6964V83.3928H82.1258C82.4538 83.3928 82.7683 83.2555 83.0003 83.011C83.2322 82.7665 83.3625 82.435 83.3625 82.0892V29.946C83.3625 26.3533 80.5873 23.4281 77.1789 23.4281ZM66.0486 44.2854H80.8891V59.9284H66.0486V44.2854ZM63.5752 80.7856H46.2612V26.0353H63.5752V80.7856ZM66.0486 62.5355H80.8891V70.357H66.0486V62.5355ZM80.8891 29.946V41.6782H66.0486V26.0353H77.1789C79.2245 26.0353 80.8891 27.7899 80.8891 29.946ZM26.4739 29.946C26.4739 27.7899 28.1385 26.0353 30.184 26.0353H43.7878V80.7856H26.4739V29.946ZM66.0486 80.7856V72.9642H80.8891V80.7856H66.0486Z" fill="black"/>
<path d="M40.0775 54.714C40.4055 54.714 40.7201 54.5766 40.952 54.3322C41.1839 54.0877 41.3142 53.7561 41.3142 53.4104V50.8032C41.3142 50.4575 41.1839 50.1259 40.952 49.8815C40.7201 49.637 40.4055 49.4997 40.0775 49.4997C39.7495 49.4997 39.435 49.637 39.203 49.8815C38.9711 50.1259 38.8408 50.4575 38.8408 50.8032V53.4104C38.8408 53.7561 38.9711 54.0877 39.203 54.3322C39.435 54.5766 39.7495 54.714 40.0775 54.714ZM49.9712 54.714C50.2992 54.714 50.6138 54.5766 50.8457 54.3322C51.0776 54.0877 51.2079 53.7561 51.2079 53.4104V50.8032C51.2079 50.4575 51.0776 50.1259 50.8457 49.8815C50.6138 49.637 50.2992 49.4997 49.9712 49.4997C49.6432 49.4997 49.3286 49.637 49.0967 49.8815C48.8648 50.1259 48.7345 50.4575 48.7345 50.8032V53.4104C48.7345 53.7561 48.8648 54.0877 49.0967 54.3322C49.3286 54.5766 49.6432 54.714 49.9712 54.714ZM74.7054 65.1426H72.2319C71.904 65.1426 71.5894 65.28 71.3575 65.5244C71.1255 65.7689 70.9952 66.1005 70.9952 66.4462C70.9952 66.7919 71.1255 67.1235 71.3575 67.368C71.5894 67.6124 71.904 67.7498 72.2319 67.7498H74.7054C75.0334 67.7498 75.3479 67.6124 75.5798 67.368C75.8118 67.1235 75.9421 66.7919 75.9421 66.4462C75.9421 66.1005 75.8118 65.7689 75.5798 65.5244C75.3479 65.28 75.0334 65.1426 74.7054 65.1426ZM74.7054 75.5713H72.2319C71.904 75.5713 71.5894 75.7086 71.3575 75.9531C71.1255 76.1975 70.9952 76.5291 70.9952 76.8749C70.9952 77.2206 71.1255 77.5522 71.3575 77.7966C71.5894 78.0411 71.904 78.1784 72.2319 78.1784H74.7054C75.0334 78.1784 75.3479 78.0411 75.5798 77.7966C75.8118 77.5522 75.9421 77.2206 75.9421 76.8749C75.9421 76.5291 75.8118 76.1975 75.5798 75.9531C75.3479 75.7086 75.0334 75.5713 74.7054 75.5713Z" fill="black"/>
</svg>
