<svg width="107" height="107" viewBox="0 0 107 107" fill="none" xmlns="http://www.w3.org/2000/svg">
<circle cx="53.1605" cy="53.16" r="51.831" fill="#D9D9D9" stroke="black" stroke-width="2.658"/>
<path d="M84.9236 58.9365H81.4834V48.6963C81.4834 48.4248 81.3799 48.1643 81.1955 47.9723C81.0112 47.7802 80.7612 47.6723 80.5005 47.6723H74.6031C74.3424 47.6723 74.0924 47.7802 73.9081 47.9723C73.7237 48.1643 73.6202 48.4248 73.6202 48.6963V58.9365H69.6885V34.8722C69.6885 30.6626 68.0834 26.6255 65.2263 23.6489C62.3692 20.6722 58.4941 19 54.4535 19C50.4129 19 46.5378 20.6722 43.6807 23.6489C40.8236 26.6255 39.2184 30.6626 39.2184 34.8722V58.9365H33.9663C34.1879 58.4573 34.3033 57.9324 34.3039 57.4004C34.3039 56.4499 33.9415 55.5383 33.2963 54.8661C32.6512 54.194 31.7761 53.8164 30.8637 53.8164C29.9513 53.8164 29.0763 54.194 28.4312 54.8661C27.786 55.5383 27.4236 56.4499 27.4236 57.4004C27.4242 57.9324 27.5396 58.4573 27.7612 58.9365H23.9834C23.7227 58.9365 23.4727 59.0444 23.2884 59.2364C23.104 59.4284 23.0005 59.6889 23.0005 59.9605V79.4167C23.0005 79.6883 23.104 79.9488 23.2884 80.1408C23.4727 80.3328 23.7227 80.4407 23.9834 80.4407H29.3894V82.4887H23.9834C23.7227 82.4887 23.4727 82.5966 23.2884 82.7887C23.104 82.9807 23.0005 83.2412 23.0005 83.5128C23.0005 83.7843 23.104 84.0448 23.2884 84.2368C23.4727 84.4289 23.7227 84.5368 23.9834 84.5368H84.9236C85.1843 84.5368 85.4343 84.4289 85.6186 84.2368C85.8029 84.0448 85.9065 83.7843 85.9065 83.5128C85.9065 83.2412 85.8029 82.9807 85.6186 82.7887C85.4343 82.5966 85.1843 82.4887 84.9236 82.4887H79.5176V80.4407H84.9236C85.1843 80.4407 85.4343 80.3328 85.6186 80.1408C85.8029 79.9488 85.9065 79.6883 85.9065 79.4167V59.9605C85.9065 59.6889 85.8029 59.4284 85.6186 59.2364C85.4343 59.0444 85.1843 58.9365 84.9236 58.9365ZM75.586 49.7204H79.5176V51.7684H75.586V49.7204ZM75.586 53.8164H79.5176V58.9365H75.586V53.8164ZM41.1843 34.8722C41.1843 31.2058 42.5823 27.6896 45.0707 25.097C47.5592 22.5045 50.9343 21.048 54.4535 21.048C57.9727 21.048 61.3478 22.5045 63.8363 25.097C66.3247 27.6896 67.7227 31.2058 67.7227 34.8722V58.9365H65.7569V34.8722C65.7569 31.749 64.566 28.7537 62.4462 26.5452C60.3264 24.3367 57.4513 23.096 54.4535 23.096C51.4556 23.096 48.5806 24.3367 46.4608 26.5452C44.341 28.7537 43.1501 31.749 43.1501 34.8722V58.9365H41.1843V34.8722ZM63.7911 34.8722V58.9365H45.1159V34.8722C45.1159 32.2921 46.0997 29.8177 47.8508 27.9934C49.6019 26.169 51.977 25.1441 54.4535 25.1441C56.93 25.1441 59.305 26.169 61.0562 27.9934C62.8073 29.8177 63.7911 32.2921 63.7911 34.8722ZM38.727 60.9845H70.18V78.3927H38.727V60.9845ZM30.8637 55.8644C31.1553 55.8644 31.4404 55.9545 31.6828 56.1233C31.9253 56.2921 32.1143 56.532 32.2259 56.8126C32.3375 57.0933 32.3667 57.4022 32.3098 57.7001C32.2529 57.9981 32.1125 58.2718 31.9063 58.4866C31.7001 58.7014 31.4374 58.8477 31.1514 58.907C30.8654 58.9662 30.5689 58.9358 30.2995 58.8195C30.0301 58.7033 29.7999 58.5064 29.6379 58.2538C29.4758 58.0012 29.3894 57.7042 29.3894 57.4004C29.3898 56.9932 29.5452 56.6027 29.8216 56.3148C30.0981 56.0268 30.4728 55.8648 30.8637 55.8644ZM24.9663 60.9845H36.7612V68.6646H24.9663V60.9845ZM24.9663 78.3927V70.7126H36.7612V78.3927H24.9663ZM77.5518 82.4887H31.3552V80.4407H77.5518V82.4887ZM83.9407 78.3927H72.1458V70.7126H83.9407V78.3927ZM83.9407 68.6646H72.1458V60.9845H83.9407V68.6646Z" fill="black"/>
<path d="M77.0604 66.1045H79.0262C79.2869 66.1045 79.5369 65.9967 79.7212 65.8046C79.9055 65.6126 80.0091 65.3521 80.0091 65.0805C80.0091 64.8089 79.9055 64.5485 79.7212 64.3564C79.5369 64.1644 79.2869 64.0565 79.0262 64.0565H77.0604C76.7997 64.0565 76.5497 64.1644 76.3653 64.3564C76.181 64.5485 76.0774 64.8089 76.0774 65.0805C76.0774 65.3521 76.181 65.6126 76.3653 65.8046C76.5497 65.9967 76.7997 66.1045 77.0604 66.1045ZM77.0604 75.8327H79.0262C79.2869 75.8327 79.5369 75.7248 79.7212 75.5327C79.9055 75.3407 80.0091 75.0802 80.0091 74.8086C80.0091 74.5371 79.9055 74.2766 79.7212 74.0846C79.5369 73.8925 79.2869 73.7846 79.0262 73.7846H77.0604C76.7997 73.7846 76.5497 73.8925 76.3653 74.0846C76.181 74.2766 76.0774 74.5371 76.0774 74.8086C76.0774 75.0802 76.181 75.3407 76.3653 75.5327C76.5497 75.7248 76.7997 75.8327 77.0604 75.8327ZM31.8467 64.0565H29.8809C29.6202 64.0565 29.3702 64.1644 29.1858 64.3564C29.0015 64.5485 28.8979 64.8089 28.8979 65.0805C28.8979 65.3521 29.0015 65.6126 29.1858 65.8046C29.3702 65.9967 29.6202 66.1045 29.8809 66.1045H31.8467C32.1074 66.1045 32.3574 65.9967 32.5417 65.8046C32.726 65.6126 32.8296 65.3521 32.8296 65.0805C32.8296 64.8089 32.726 64.5485 32.5417 64.3564C32.3574 64.1644 32.1074 64.0565 31.8467 64.0565ZM31.8467 73.7846H29.8809C29.6202 73.7846 29.3702 73.8925 29.1858 74.0846C29.0015 74.2766 28.8979 74.5371 28.8979 74.8086C28.8979 75.0802 29.0015 75.3407 29.1858 75.5327C29.3702 75.7248 29.6202 75.8327 29.8809 75.8327H31.8467C32.1074 75.8327 32.3574 75.7248 32.5417 75.5327C32.726 75.3407 32.8296 75.0802 32.8296 74.8086C32.8296 74.5371 32.726 74.2766 32.5417 74.0846C32.3574 73.8925 32.1074 73.7846 31.8467 73.7846ZM55.805 68.6646H53.102C52.8413 68.6646 52.5913 68.7725 52.407 68.9645C52.2227 69.1565 52.1191 69.417 52.1191 69.6886C52.1191 69.9602 52.2227 70.2206 52.407 70.4127C52.5913 70.6047 52.8413 70.7126 53.102 70.7126H55.805C56.0657 70.7126 56.3157 70.6047 56.5 70.4127C56.6844 70.2206 56.7879 69.9602 56.7879 69.6886C56.7879 69.417 56.6844 69.1565 56.5 68.9645C56.3157 68.7725 56.0657 68.6646 55.805 68.6646ZM53.4106 38.7819C53.5897 38.5887 53.6888 38.3301 53.6865 38.0616C53.6843 37.7931 53.5809 37.5362 53.3987 37.3464C53.2164 37.1565 52.9699 37.0488 52.7122 37.0465C52.4545 37.0442 52.2062 37.1474 52.0208 37.3339L49.9361 39.5058C49.8422 39.6003 49.7673 39.7133 49.7158 39.8382C49.6643 39.9632 49.6372 40.0975 49.636 40.2335C49.6349 40.3695 49.6598 40.5043 49.7092 40.6301C49.7586 40.756 49.8316 40.8703 49.9239 40.9665C50.0162 41.0626 50.1259 41.1387 50.2467 41.1901C50.3675 41.2416 50.4969 41.2675 50.6275 41.2664C50.758 41.2652 50.8869 41.2369 51.0069 41.1833C51.1268 41.1296 51.2352 41.0516 51.3259 40.9538L53.4106 38.7819ZM57.5811 43.1267L55.4964 45.2987C55.4025 45.3931 55.3276 45.5061 55.2761 45.6311C55.2246 45.756 55.1975 45.8904 55.1963 46.0263C55.1952 46.1623 55.2201 46.2971 55.2695 46.423C55.3189 46.5488 55.3919 46.6632 55.4842 46.7593C55.5765 46.8555 55.6862 46.9315 55.807 46.983C55.9278 47.0345 56.0572 47.0604 56.1878 47.0592C56.3183 47.058 56.4472 47.0298 56.5672 46.9761C56.6871 46.9224 56.7955 46.8444 56.8862 46.7466L58.971 44.5747C59.15 44.3816 59.2491 44.1229 59.2468 43.8544C59.2446 43.5859 59.1412 43.3291 58.959 43.1392C58.7767 42.9493 58.5302 42.8417 58.2725 42.8393C58.0148 42.837 57.7665 42.9402 57.5811 43.1267ZM57.5811 38.7819C57.3968 38.5899 57.1468 38.482 56.8862 38.482C56.6256 38.482 56.3756 38.5899 56.1913 38.7819L51.3259 43.8507C51.232 43.9452 51.1571 44.0582 51.1056 44.1831C51.0541 44.308 51.027 44.4424 51.0259 44.5784C51.0247 44.7143 51.0496 44.8492 51.099 44.975C51.1485 45.1009 51.2214 45.2152 51.3137 45.3114C51.406 45.4075 51.5158 45.4835 51.6365 45.535C51.7573 45.5865 51.8868 45.6124 52.0173 45.6112C52.1478 45.6101 52.2768 45.5818 52.3967 45.5281C52.5166 45.4745 52.6251 45.3965 52.7157 45.2987L57.5811 40.2298C57.7654 40.0378 57.8689 39.7774 57.8689 39.5058C57.8689 39.2343 57.7654 38.9739 57.5811 38.7819Z" fill="black"/>
</svg>
