<svg width="150" height="150" viewBox="0 0 150 150" fill="none" xmlns="http://www.w3.org/2000/svg">
<path d="M51.0738 123.871H50.0027C48.0606 123.871 46.4871 122.296 46.4871 120.355C46.4871 118.414 48.0606 116.839 50.0027 116.839H51.0738C57.0316 116.839 62.3657 113.365 64.6637 107.989L70.5162 94.2946C71.2807 92.5093 73.3463 91.6762 75.1305 92.4452C76.9158 93.2074 77.7454 95.2742 76.9821 97.0595L71.1296 110.753C67.7227 118.721 59.8515 123.871 51.0738 123.871Z" fill="#30504C" fill-opacity="0.9"/>
<path d="M90.5386 141.797H45.9604C44.8927 141.797 43.8822 141.312 43.215 140.476C42.5478 139.643 42.296 138.551 42.5306 137.51L45.5965 123.891H32.3672C29.6641 123.891 27.0731 122.74 25.2581 120.735C23.4591 118.746 22.5802 116.087 22.8457 113.438L23.8814 103.278L16.8913 101.884C15.8076 101.669 14.8897 100.957 14.4102 99.9619C13.9307 98.9662 13.9479 97.8035 14.4549 96.8239L14.8062 96.1441C14.8909 95.9793 14.9893 95.8214 15.0992 95.6726C21.9885 86.3274 21.0398 83.0658 19.6024 78.1288C18.8402 75.5081 17.9762 72.5395 17.9762 68.5089C17.9762 63.8878 18.7464 59.3674 20.2639 55.0781C20.7605 53.6728 22.0881 52.7344 23.5781 52.7344H88.0541C89.9961 52.7344 91.5697 54.3091 91.5697 56.25C91.5697 58.1909 89.9961 59.7656 88.0541 59.7656H26.161C25.3954 62.5923 25.0075 65.522 25.0075 68.5089C25.0075 71.537 25.6621 73.7846 26.3544 76.165C28.1374 82.2945 28.8985 87.2223 23.3858 96.0091L28.3892 97.007C30.1665 97.3595 31.3841 99.0074 31.1999 100.811L29.8415 114.146C29.7499 115.066 30.1974 115.714 30.472 116.018C30.757 116.331 31.3818 116.86 32.3672 116.86H49.9922C51.0599 116.86 52.0705 117.345 52.7376 118.181C53.4048 119.014 53.6566 120.106 53.422 121.147L50.3561 134.766H86.7644L85.7905 121.046C85.4654 116.531 85.4872 111.98 85.8545 107.524C86.0147 105.588 87.6844 104.157 89.6482 104.308C91.5834 104.469 93.0219 106.167 92.8629 108.101C92.5241 112.2 92.5047 116.386 92.8034 120.545L94.0451 138.032C94.1149 139.005 93.7761 139.964 93.1112 140.678C92.4463 141.392 91.5148 141.797 90.5386 141.797Z" fill="#30504C" fill-opacity="0.9"/>
<path d="M44.8677 109.365C43.3594 109.365 42.0387 109.124 41.0763 108.804C39.2338 108.191 38.2381 106.199 38.8527 104.357C39.4626 102.53 41.423 101.53 43.2609 102.121C43.7622 102.269 47.961 103.363 50.9811 98.8316C52.058 97.2157 54.237 96.774 55.8563 97.8566C57.4722 98.9346 57.9083 101.116 56.8314 102.732C53.365 107.932 48.5538 109.365 44.8677 109.365ZM48.0469 59.7661C46.1048 59.7661 44.5312 58.1913 44.5312 56.2504V24.6716L38.6707 17.3474L32.8125 24.6716V56.2504C32.8125 58.1913 31.2389 59.7661 29.2969 59.7661C27.3548 59.7661 25.7812 58.1913 25.7812 56.2504V23.4379C25.7812 22.6391 26.0525 21.8655 26.5514 21.243L35.9241 9.52421C37.2585 7.85567 40.0806 7.85567 41.415 9.52192L50.7923 21.2407C51.2913 21.8655 51.5625 22.6391 51.5625 23.4379V56.2504C51.5625 58.1913 49.9889 59.7661 48.0469 59.7661Z" fill="#30504C" fill-opacity="0.9"/>
<path d="M48.0469 36.3282H29.2969C27.3548 36.3282 25.7812 34.7535 25.7812 32.8126C25.7812 30.8717 27.3548 29.297 29.2969 29.297H48.0469C49.9889 29.297 51.5625 30.8717 51.5625 32.8126C51.5625 34.7535 49.9889 36.3282 48.0469 36.3282ZM77.5097 59.7657C77.235 59.7657 76.9558 59.7337 76.6766 59.6673C74.7906 59.2073 73.6324 57.3053 74.0913 55.4193L81.3 25.7654L69.9211 22.9959L61.6344 57.081C61.1778 58.967 59.2827 60.1159 57.3875 59.6674C55.5015 59.2073 54.3434 57.3053 54.8023 55.4193L63.9198 17.9193C64.1396 17.0129 64.7118 16.2324 65.5083 15.7472C66.3048 15.2597 67.2604 15.1155 68.1667 15.3329L86.3777 19.7641C88.2637 20.2218 89.4218 22.1238 88.9629 24.0098L80.9235 57.081C80.5332 58.6877 79.0947 59.7657 77.5097 59.7657Z" fill="#30504C" fill-opacity="0.9"/>
<path d="M71.4042 35.3141C71.1296 35.3141 70.8503 35.2821 70.5711 35.2157L63.7378 33.554C61.8518 33.094 60.6937 31.192 61.1526 29.306C61.6127 27.42 63.5124 26.2687 65.3995 26.7196L72.2328 28.3813C74.1188 28.8414 75.2769 30.7434 74.818 32.6293C74.4266 34.2361 72.9892 35.3141 71.4042 35.3141ZM68.6371 46.701C68.3624 46.701 68.0832 46.669 67.8039 46.6003L60.9718 44.9386C59.0847 44.4809 57.9277 42.5788 58.3866 40.6929C58.8466 38.8069 60.7464 37.6442 62.6335 38.1088L69.4656 39.7705C71.3527 40.2282 72.5097 42.1302 72.0508 44.0162C71.6594 45.623 70.2221 46.701 68.6371 46.701ZM111.328 110.156H106.641C100.825 110.156 96.0937 105.425 96.0937 99.6093V92.5231C96.0937 91.2895 95.5295 90.168 94.6209 89.5935C85.5457 83.8691 80.8227 73.6747 82.2944 62.9882C83.9435 51.0086 93.8816 41.3452 105.926 40.0131C113.584 39.1708 121.256 41.6061 126.958 46.7102C132.664 51.8211 135.937 59.1407 135.937 66.7968C135.937 76.1009 131.23 84.6222 123.346 89.5935C122.439 90.1657 121.875 91.262 121.875 92.4522V99.6093C121.875 105.425 117.144 110.156 111.328 110.156ZM109.008 46.875C108.245 46.875 107.474 46.9162 106.699 47.0031C97.8103 47.9851 90.4758 55.1124 89.2593 63.9473C88.1698 71.8666 91.6603 79.4128 98.3711 83.6471C101.303 85.4942 103.125 88.8954 103.125 92.5231V99.6093C103.125 101.548 104.702 103.125 106.641 103.125H111.328C113.267 103.125 114.844 101.548 114.844 99.6093V92.4522C114.844 88.8176 116.62 85.5262 119.594 83.6471C125.426 79.9713 128.906 73.6724 128.906 66.7968C128.906 61.1389 126.487 55.7258 122.267 51.9493C118.568 48.6351 113.927 46.875 109.008 46.875Z" fill="#30504C" fill-opacity="0.9"/>
<path d="M118.359 98.4375H101.196C99.2535 98.4375 97.6799 96.8628 97.6799 94.9219C97.6799 92.981 99.2535 91.4062 101.196 91.4062H118.359C120.301 91.4062 121.875 92.981 121.875 94.9219C121.875 96.8628 120.301 98.4375 118.359 98.4375ZM108.984 79.6875C101.876 79.6875 96.0938 73.9037 96.0938 66.7969C96.0938 64.856 97.6673 63.2812 99.6094 63.2812C101.551 63.2812 103.125 64.856 103.125 66.7969C103.125 70.0287 105.754 72.6562 108.984 72.6562C112.215 72.6562 114.844 70.0287 114.844 66.7969C114.844 64.856 116.417 63.2812 118.359 63.2812C120.301 63.2812 121.875 64.856 121.875 66.7969C121.875 73.9037 116.092 79.6875 108.984 79.6875Z" fill="#30504C" fill-opacity="0.9"/>
<path d="M108.984 98.4375C107.042 98.4375 105.469 96.8628 105.469 94.9219V76.1719C105.469 74.231 107.042 72.6562 108.984 72.6562C110.926 72.6562 112.5 74.231 112.5 76.1719V94.9219C112.5 96.8628 110.926 98.4375 108.984 98.4375Z" fill="#30504C" fill-opacity="0.9"/>
</svg>
