<svg width="150" height="150" viewBox="0 0 150 150" fill="none" xmlns="http://www.w3.org/2000/svg">
<path d="M40.2 62.9999C48 64.7999 53.4 69.5999 53.4 78.8999C53.4 80.0999 53.4 81.5999 53.1 83.0999M16.2 62.9999C8.4 64.7999 3 69.5999 3 78.8999C3 80.6999 3.3 82.4999 3.6 84.5999C4.2 87.5999 7.2 89.9999 10.5 89.9999H40.5M11.7 71.0999C12 70.7999 12.3 70.4999 12.9 70.1999" stroke="#30504C" stroke-width="3.5" stroke-miterlimit="10" stroke-linecap="round" stroke-linejoin="round"/>
<path d="M9.0002 81.3003C9.0002 80.4003 8.7002 79.5003 8.7002 78.6003C8.7002 77.1003 9.00019 75.6003 9.30019 74.4003" stroke="#30504C" stroke-width="3.5" stroke-miterlimit="10" stroke-linecap="round" stroke-linejoin="round"/>
<path d="M38.1 58.8002L28.2 66.9002L33.9 70.5002L40.2 63.0002L38.1 58.8002Z" stroke="#30504C" stroke-width="3.5" stroke-miterlimit="10" stroke-linecap="round" stroke-linejoin="round"/>
<path d="M18.3002 58.8002L28.2002 66.9002L22.5002 70.5002L16.2002 63.0002L18.3002 58.8002Z" stroke="#30504C" stroke-width="3.5" stroke-miterlimit="10" stroke-linecap="round" stroke-linejoin="round"/>
<path d="M19.7998 37.4999C21.2998 37.1999 23.0998 37.4999 24.5998 37.7999C26.0998 38.3999 27.5998 38.9999 29.3998 39.2999C31.4998 39.8999 33.5998 39.8999 35.3998 39.2999C36.8998 38.9999 38.3998 38.0999 39.2998 36.8999V33.8999C39.2998 30.2999 36.2998 27.5999 32.6998 27.5999H23.3998C19.7998 27.5999 16.7998 30.5999 16.7998 33.8999V38.9999C17.6998 38.0999 18.5998 37.7999 19.7998 37.4999Z" stroke="#30504C" stroke-width="3.5" stroke-miterlimit="10" stroke-linecap="round" stroke-linejoin="round"/>
<path d="M39.2999 41.1003V36.9003C38.3999 38.1003 36.8999 38.7003 35.3999 39.3003C33.2999 39.9003 31.1999 39.9003 29.3999 39.3003C27.8999 39.0003 26.3999 38.4003 24.5999 37.8003C23.0999 37.2003 21.2999 37.2003 19.7999 37.5003C18.5999 37.8003 17.6999 38.4003 17.0999 39.0003V41.1003C15.5999 41.1003 14.3999 42.3003 14.3999 43.8003C14.3999 45.3003 15.5999 46.5003 17.0999 46.5003C17.6999 51.9003 22.4999 56.1003 28.1999 56.1003C33.8999 56.1003 38.6999 51.9003 39.2999 46.5003C40.7999 46.5003 41.9999 45.3003 41.9999 43.8003C41.9999 42.3003 40.7999 41.1003 39.2999 41.1003Z" stroke="#30504C" stroke-width="3.5" stroke-miterlimit="10" stroke-linecap="round" stroke-linejoin="round"/>
<path d="M33.5999 89.9999L30.8999 73.1999L32.3999 69.5999" stroke="black" stroke-width="3.5" stroke-miterlimit="10" stroke-linecap="round" stroke-linejoin="round"/>
<path d="M23.9998 69.5999L25.4998 73.1999L22.7998 89.9999" stroke="black" stroke-width="3.5" stroke-miterlimit="10" stroke-linecap="round" stroke-linejoin="round"/>
<path d="M25.5 73.1995H30.9" stroke="#30504C" stroke-width="3.5" stroke-miterlimit="10" stroke-linecap="round" stroke-linejoin="round"/>
<path d="M133.8 62.9999C141.6 64.7999 147 69.5999 147 78.8999C147 80.6999 146.7 82.4999 146.4 84.5999C145.8 87.5999 142.8 89.9999 139.5 89.9999H109.5M96.9001 83.0999C96.6001 81.5999 96.6001 80.0999 96.6001 78.8999C96.6001 69.5999 102 65.0999 109.8 62.9999M105.3 71.0999C105.6 70.7999 105.9 70.4999 106.5 70.1999M102.6 81.2999C102.6 80.3999 102.3 79.4999 102.3 78.5999C102.3 77.0999 102.6 75.5999 102.9 74.3999" stroke="#30504C" stroke-width="3.5" stroke-miterlimit="10" stroke-linecap="round" stroke-linejoin="round"/>
<path d="M131.7 58.8002L121.8 66.9002L127.5 70.5002L133.8 63.0002L131.7 58.8002Z" stroke="#30504C" stroke-width="3.5" stroke-miterlimit="10" stroke-linecap="round" stroke-linejoin="round"/>
<path d="M111.9 58.8002L121.8 66.9002L116.1 70.5002L109.8 63.0002L111.9 58.8002Z" stroke="#30504C" stroke-width="3.5" stroke-miterlimit="10" stroke-linecap="round" stroke-linejoin="round"/>
<path d="M113.4 37.4999C114.9 37.1999 116.7 37.4999 118.2 37.7999C119.7 38.3999 121.2 38.9999 123 39.2999C125.1 39.8999 127.2 39.8999 129 39.2999C130.5 38.9999 132 38.0999 132.9 36.8999V33.8999C132.9 30.2999 129.9 27.5999 126.3 27.5999H117C113.4 27.5999 110.4 30.5999 110.4 33.8999V38.9999C111.3 38.0999 112.2 37.7999 113.4 37.4999Z" stroke="#30504C" stroke-width="3.5" stroke-miterlimit="10" stroke-linecap="round" stroke-linejoin="round"/>
<path d="M132.9 41.1003V36.9003C132 38.1003 130.5 39.0003 129 39.3003C126.9 39.9003 124.8 39.9003 123 39.3003C121.5 39.0003 120 38.4003 118.2 37.8003C116.7 37.2003 114.9 37.2003 113.4 37.5003C112.2 37.8003 111.3 38.4003 110.7 39.0003V41.1003C109.2 41.1003 108 42.3003 108 43.8003C108 45.3003 109.2 46.5003 110.7 46.5003C111.3 51.9003 116.1 56.1003 121.8 56.1003C127.5 56.1003 132.3 51.9003 132.9 46.5003C134.4 46.5003 135.6 45.3003 135.6 43.8003C135.6 42.3003 134.4 41.1003 132.9 41.1003Z" stroke="#30504C" stroke-width="3.5" stroke-miterlimit="10" stroke-linecap="round" stroke-linejoin="round"/>
<path d="M127.2 89.9999L124.5 73.1999L126 69.5999" stroke="black" stroke-width="3.5" stroke-miterlimit="10" stroke-linecap="round" stroke-linejoin="round"/>
<path d="M117.6 69.5999L119.1 73.1999L116.4 89.9999" stroke="black" stroke-width="3.5" stroke-miterlimit="10" stroke-linecap="round" stroke-linejoin="round"/>
<path d="M119.1 73.1995H124.5" stroke="#30504C" stroke-width="3.5" stroke-miterlimit="10" stroke-linecap="round" stroke-linejoin="round"/>
<path d="M115.5 106.8C115.5 119.1 105 128.4 93 128.4H57C44.7 128.4 34.5 118.8 34.5 106.8V106.5C34.5 87.5998 47.7 82.1998 65.1 80.9998L74.7 92.3998L84.3 80.9998C87.6 81.2998 90.9 81.5998 93.9 82.1998C107.1 84.8998 115.5 91.4998 115.5 106.8Z" stroke="#30504C" stroke-width="3.5" stroke-miterlimit="10" stroke-linecap="round" stroke-linejoin="round"/>
<path d="M81.9 118.8L74.7 123.9L67.5 118.8L71.4 95.6996L75 92.6996L78 94.7996L81.9 118.8Z" stroke="#30504C" stroke-width="3.5" stroke-miterlimit="10" stroke-linecap="round" stroke-linejoin="round"/>
<path d="M94.4999 82.5002L84.5999 100.2L74.9999 92.7002L84.5999 81.3002C88.1999 81.3002 91.4999 81.9002 94.4999 82.5002ZM55.4999 82.5002L65.3999 100.2L74.6999 92.7002L65.0999 81.3002C61.7999 81.3002 58.4999 81.9002 55.4999 82.5002ZM99.5999 52.5002C98.9999 55.2002 97.7999 57.9002 96.2999 60.3002C93.5999 59.4002 90.8999 59.7002 89.0999 61.2002C87.2999 63.0002 87.2999 65.7002 88.1999 68.4002C85.7999 69.9002 83.3999 71.1002 80.6999 71.7002C79.4999 69.0002 77.3999 67.2002 74.9999 67.2002C72.5999 67.2002 70.4999 69.0002 69.2999 71.7002C66.5999 71.1002 63.8999 69.9002 61.7999 68.4002C62.6999 65.7002 62.3999 62.7002 60.8999 61.2002C59.0999 59.4002 56.3999 59.1002 53.6999 60.3002C52.1999 57.9002 51.2999 55.5002 50.3999 52.5002C53.0999 51.3002 54.8999 49.2002 54.8999 46.5002C54.8999 44.1002 53.0999 42.0002 50.3999 40.5002C50.9999 37.8002 52.1999 35.1002 53.3999 32.7002C56.0999 33.6002 59.0999 33.3002 60.5999 31.8002C62.3999 30.0002 62.3999 27.3002 61.4999 24.6002C63.8999 23.1002 66.2999 21.9002 68.9999 21.3002C70.1999 24.0002 72.2999 25.8002 74.6999 25.8002C77.0999 25.8002 79.1999 24.0002 80.3999 21.3002C83.0999 21.9002 85.7999 23.1002 87.8999 24.6002C86.9999 27.3002 87.2999 30.3002 88.7999 31.8002C90.5999 33.6002 93.2999 33.9002 95.9999 32.7002C97.4999 35.1002 98.3999 37.5002 98.9999 40.5002C96.2999 41.7002 94.4999 44.1002 94.4999 46.5002C95.3999 48.9002 97.1999 51.0002 99.5999 52.5002Z" stroke="#30504C" stroke-width="3.5" stroke-miterlimit="10" stroke-linecap="round" stroke-linejoin="round"/>
<path d="M75.0001 57.8998C81.2961 57.8998 86.4001 52.7958 86.4001 46.4998C86.4001 40.2037 81.2961 35.0998 75.0001 35.0998C68.704 35.0998 63.6001 40.2037 63.6001 46.4998C63.6001 52.7958 68.704 57.8998 75.0001 57.8998Z" stroke="#30504C" stroke-width="3.5" stroke-miterlimit="10" stroke-linecap="round" stroke-linejoin="round"/>
</svg>
