<svg width="150" height="150" viewBox="0 0 150 150" fill="none" xmlns="http://www.w3.org/2000/svg">
<path d="M99.0454 109.387C99.0454 106.296 97.2954 103.614 94.7499 102.273C96.1817 100.773 96.9545 98.7957 96.9545 96.7275C96.9545 92.2957 93.3635 88.7048 88.9317 88.7048H73.8635C77.0226 79.4548 76.2272 70.182 75.4317 65.273C74.909 62.1593 72.2499 59.8866 69.0908 59.8866C67.3863 59.8866 65.7726 60.5457 64.5454 61.7502C63.3635 62.9321 62.7045 64.4775 62.659 66.273C60.9545 76.1821 55.5908 81.8639 55.5226 81.932L45.5226 92.6139C44.7272 91.5684 43.4772 90.8866 42.0454 90.8866H27.2045C24.7954 90.8866 22.8181 92.8639 22.8181 95.273V97.6139H4.54537C3.61355 97.6139 2.84082 98.3866 2.84082 99.3184C2.84082 100.25 3.61355 101.023 4.54537 101.023H22.8408V133.614H4.54537C3.61355 133.614 2.84082 134.387 2.84082 135.318C2.84082 136.25 3.61355 137.023 4.54537 137.023H22.8408V139.387C22.8408 141.796 24.8181 143.773 27.2272 143.773H42.0681C44.1135 143.773 45.8181 142.364 46.2954 140.478C47.909 141.864 49.9999 142.75 52.2954 142.75H86.7726C88.909 142.75 90.9317 141.909 92.4545 140.387C93.9772 138.864 94.7954 136.841 94.7954 134.705C94.7954 132.568 93.9545 130.637 92.6135 129.205C93.3408 128.818 94.0226 128.341 94.6363 127.728C96.159 126.205 96.9772 124.182 96.9772 122.046C96.9772 119.909 96.1363 117.955 94.7499 116.523C95.4545 116.159 96.1135 115.659 96.7045 115.091C98.2272 113.523 99.0454 111.523 99.0454 109.387ZM42.0681 140.341H27.2272C26.6817 140.341 26.2499 139.909 26.2499 139.364V95.2502C26.2499 94.7048 26.6817 94.273 27.2272 94.273H42.0681C42.6135 94.273 43.0454 94.7048 43.0454 95.2502V95.9775C43.0454 95.9775 43.0454 95.9775 43.0454 96.0002V133.432V133.455V139.341C43.0454 139.909 42.5908 140.341 42.0681 140.341ZM94.2954 112.637C93.4317 113.5 92.2726 113.978 91.0226 113.978H88.9317C87.9999 113.978 87.2272 114.75 87.2272 115.682C87.2272 116.614 87.9999 117.387 88.9317 117.387C91.4772 117.387 93.5454 119.455 93.5454 122C93.5454 123.228 93.0681 124.387 92.2045 125.273C91.3408 126.137 90.1817 126.614 88.9317 126.614H86.7499C85.8181 126.614 85.0454 127.387 85.0454 128.318C85.0454 129.25 85.8181 130.023 86.7499 130.023C89.2954 130.023 91.3635 132.091 91.3635 134.637C91.3635 135.864 90.8863 137.023 90.0226 137.909C89.159 138.773 87.9772 139.273 86.7499 139.273H52.2954C49.0681 139.273 46.4545 136.659 46.4317 133.432V96.6139L57.9999 84.273C58.2499 84.023 64.1817 77.7957 66.0681 66.7048C66.0908 66.6139 66.0908 66.3639 66.0908 66.273C66.0908 65.4775 66.409 64.7275 66.9772 64.1593C67.5454 63.5911 68.2954 63.273 69.1135 63.273C70.5908 63.273 71.8408 64.3411 72.0908 65.8184C72.909 70.7957 73.7045 80.5457 69.8635 89.7502C69.6363 90.273 69.7045 90.8866 70.0226 91.3411C70.3408 91.8184 70.8635 92.0911 71.4317 92.0911H88.9772C91.5226 92.0911 93.5908 94.1593 93.5908 96.7048C93.5908 97.932 93.1135 99.0911 92.2499 99.9775C91.3863 100.841 90.2272 101.318 88.9772 101.318C88.0454 101.318 87.2726 102.091 87.2726 103.023C87.2726 103.955 88.0454 104.728 88.9772 104.728H91.0681C93.6135 104.728 95.6817 106.796 95.6817 109.341C95.6363 110.614 95.159 111.773 94.2954 112.637Z" fill="#30504C"/>
<path d="M34.6363 126.659C31.7045 126.659 29.3181 129.046 29.3181 131.978C29.3181 134.909 31.7045 137.296 34.6363 137.296C37.5681 137.296 39.9545 134.909 39.9545 131.978C39.9545 129.046 37.5681 126.659 34.6363 126.659ZM34.6363 133.887C33.5908 133.887 32.7272 133.023 32.7272 131.978C32.7272 130.932 33.5908 130.068 34.6363 130.068C35.7045 130.068 36.5454 130.932 36.5454 131.978C36.5454 133.023 35.7045 133.887 34.6363 133.887ZM140.909 31.523H87.0681C83.6136 31.523 80.8181 34.3185 80.8181 37.773V68.3639C80.8181 71.8185 83.6136 74.6139 87.0681 74.6139H93.3636V84.1139C93.3636 84.7957 93.7727 85.4094 94.409 85.6821C94.6136 85.773 94.8409 85.8185 95.0681 85.8185C95.4999 85.8185 95.9318 85.6594 96.2499 85.3412L107.318 74.6139H140.909C144.364 74.6139 147.159 71.8185 147.159 68.3639V37.773C147.159 34.3185 144.364 31.523 140.909 31.523ZM143.75 68.3639C143.75 69.9321 142.477 71.2048 140.909 71.2048H106.636C106.204 71.2048 105.773 71.3867 105.454 71.6821L96.7954 80.0912V72.9094C96.7954 71.9776 96.0227 71.2048 95.0909 71.2048H87.0908C85.5227 71.2048 84.2499 69.9321 84.2499 68.3639V37.773C84.2499 36.2048 85.5227 34.9321 87.0908 34.9321H140.909C142.477 34.9321 143.75 36.2048 143.75 37.773V68.3639Z" fill="#30504C"/>
<path d="M95.4317 46.3182C91.7045 46.3182 88.659 49.3636 88.659 53.0909C88.659 56.8182 91.7045 59.8636 95.4317 59.8636C99.159 59.8636 102.204 56.8182 102.204 53.0909C102.204 49.3636 99.159 46.3182 95.4317 46.3182ZM95.4317 56.4318C93.5908 56.4318 92.0681 54.9318 92.0681 53.0682C92.0681 51.2045 93.5681 49.7045 95.4317 49.7045C97.2954 49.7045 98.7954 51.2045 98.7954 53.0682C98.7954 54.9318 97.2726 56.4318 95.4317 56.4318ZM114 46.3182C110.273 46.3182 107.227 49.3636 107.227 53.0909C107.227 56.8182 110.273 59.8636 114 59.8636C117.727 59.8636 120.773 56.8182 120.773 53.0909C120.773 49.3636 117.727 46.3182 114 46.3182ZM114 56.4318C112.159 56.4318 110.636 54.9318 110.636 53.0682C110.636 51.2045 112.136 49.7045 114 49.7045C115.864 49.7045 117.364 51.2045 117.364 53.0682C117.364 54.9318 115.841 56.4318 114 56.4318ZM132.545 46.3182C128.818 46.3182 125.773 49.3636 125.773 53.0909C125.773 56.8182 128.818 59.8636 132.545 59.8636C136.273 59.8636 139.318 56.8182 139.318 53.0682C139.318 49.3182 136.273 46.3182 132.545 46.3182ZM132.545 56.4318C130.704 56.4318 129.182 54.9318 129.182 53.0682C129.182 51.2045 130.682 49.7045 132.545 49.7045C134.409 49.7045 135.909 51.2045 135.909 53.0682C135.909 54.9318 134.409 56.4318 132.545 56.4318ZM34.1817 68.9318C51.4545 68.9318 65.5226 54.8636 65.5226 37.5909C65.5226 20.3182 51.4772 6.25 34.1817 6.25C16.8863 6.25 2.84082 20.3182 2.84082 37.5909C2.84082 54.8636 16.909 68.9318 34.1817 68.9318ZM34.1817 9.65909C49.5908 9.65909 62.1135 22.1818 62.1135 37.5909C62.1135 53 49.5908 65.5227 34.1817 65.5227C18.7726 65.5227 6.24991 53 6.24991 37.5909C6.24991 22.1818 18.7726 9.65909 34.1817 9.65909Z" fill="#30504C"/>
<path d="M24.2954 44.3639C23.4772 45.1821 23.4772 46.523 24.2954 47.3411C26.9317 49.9775 30.4545 51.4321 34.1817 51.4321C37.9317 51.4321 41.4317 49.9775 44.0681 47.3411C44.8863 46.523 44.8863 45.1821 44.0681 44.3639C43.2499 43.5457 41.909 43.5457 41.0908 44.3639C37.3863 48.0684 30.9545 48.0684 27.2499 44.3639C26.4317 43.5457 25.1135 43.5457 24.2954 44.3639ZM26.2726 35.9093C28.1817 35.9093 29.7045 33.6593 29.7045 30.8639C29.7045 28.0911 28.159 25.8184 26.2726 25.8184C24.3863 25.8184 22.8408 28.0684 22.8408 30.8639C22.8408 33.6593 24.3863 35.9093 26.2726 35.9093ZM42.0908 35.9093C43.9999 35.9093 45.5226 33.6593 45.5226 30.8639C45.5226 28.0911 43.9772 25.8184 42.0908 25.8184C40.1817 25.8184 38.659 28.0684 38.659 30.8639C38.659 33.6593 40.1817 35.9093 42.0908 35.9093Z" fill="#30504C"/>
</svg>
