<svg width="60" height="46" viewBox="0 0 60 46" fill="none" xmlns="http://www.w3.org/2000/svg">
<circle cx="39.5005" cy="25.5" r="20.5" fill="black" fill-opacity="0.25"/>
<path d="M14.2005 9L10.0005 14.6V34.2C10.0005 34.9426 10.2955 35.6548 10.8206 36.1799C11.3457 36.705 12.0579 37 12.8005 37H32.4005C33.1431 37 33.8553 36.705 34.3804 36.1799C34.9055 35.6548 35.2005 34.9426 35.2005 34.2V14.6L31.0005 9H14.2005Z" stroke="black" stroke-width="2.8" stroke-linecap="round" stroke-linejoin="round"/>
<path d="M28.2005 20.2C28.2005 21.6852 27.6105 23.1095 26.5603 24.1597C25.5101 25.21 24.0857 25.7999 22.6005 25.7999C21.1153 25.7999 19.6909 25.21 18.6407 24.1597C17.5905 23.1095 17.0005 21.6852 17.0005 20.2" stroke="black" stroke-width="2.8" stroke-linecap="round" stroke-linejoin="round"/>
<path d="M10.0005 14.6H35.2005" stroke="black" stroke-width="2.8" stroke-linecap="round" stroke-linejoin="round"/>
</svg>
