<svg width="107" height="107" viewBox="0 0 107 107" fill="none" xmlns="http://www.w3.org/2000/svg">
<circle cx="53.1605" cy="53.16" r="51.831" fill="#D9D9D9" stroke="black" stroke-width="2.658"/>
<path d="M87.8279 62.8211H86.6614V59.5797C86.66 58.2126 86.2567 56.8717 85.4948 55.7008V30.407C85.4948 29.2607 85.0032 28.1614 84.1281 27.3509C83.253 26.5404 82.0661 26.0851 80.8285 26.0851C79.591 26.0851 78.4041 26.5404 77.529 27.3509C76.6539 28.1614 76.1623 29.2607 76.1623 30.407V34.7289H31.8327V30.407C31.8327 29.2607 31.3411 28.1614 30.466 27.3509C29.5909 26.5404 28.404 26.0851 27.1665 26.0851C25.9289 26.0851 24.742 26.5404 23.8669 27.3509C22.9918 28.1614 22.5002 29.2607 22.5002 30.407V55.7008C21.7383 56.8717 21.335 58.2126 21.3336 59.5797V62.8211H20.1671C19.8577 62.8211 19.5609 62.9349 19.3422 63.1376C19.1234 63.3402 19.0005 63.615 19.0005 63.9016V72.5453C19.0005 72.8319 19.1234 73.1067 19.3422 73.3093C19.5609 73.512 19.8577 73.6258 20.1671 73.6258H21.3336V79.0282C21.3336 79.3147 21.4565 79.5895 21.6753 79.7922C21.8941 79.9948 22.1908 80.1086 22.5002 80.1086H25.9999C26.2439 80.107 26.4813 80.0355 26.6797 79.9039C26.8781 79.7724 27.0278 79.5873 27.1081 79.3739L29.173 73.6258H78.822L80.8869 79.3739C80.9672 79.5873 81.1168 79.7724 81.3152 79.9039C81.5136 80.0355 81.7511 80.107 81.9951 80.1086H85.4948C85.8042 80.1086 86.1009 79.9948 86.3197 79.7922C86.5385 79.5895 86.6614 79.3147 86.6614 79.0282V73.6258H87.8279C88.1373 73.6258 88.434 73.512 88.6528 73.3093C88.8716 73.1067 88.9945 72.8319 88.9945 72.5453V63.9016C88.9945 63.615 88.8716 63.3402 88.6528 63.1376C88.434 62.9349 88.1373 62.8211 87.8279 62.8211ZM78.4954 30.407C78.4954 29.8338 78.7412 29.2842 79.1787 28.879C79.6163 28.4737 80.2097 28.246 80.8285 28.246C81.4473 28.246 82.0408 28.4737 82.4783 28.879C82.9158 29.2842 83.1617 29.8338 83.1617 30.407V34.7289H78.4954V30.407ZM24.8333 30.407C24.8333 29.8338 25.0791 29.2842 25.5167 28.879C25.9542 28.4737 26.5477 28.246 27.1665 28.246C27.7852 28.246 28.3787 28.4737 28.8162 28.879C29.2538 29.2842 29.4996 29.8338 29.4996 30.407V34.7289H24.8333V30.407ZM24.8333 36.8898H83.1617V53.3778C81.7934 52.4921 80.1646 52.0169 78.4954 52.0164V46.614C78.4926 45.7551 78.123 44.9322 77.4673 44.3248C76.8116 43.7175 75.923 43.3752 74.9957 43.3726H58.6638C57.7364 43.3752 56.8479 43.7175 56.1922 44.3248C55.5364 44.9322 55.1668 45.7551 55.1641 46.614V52.0164H52.8309V46.614C52.8282 45.7551 52.4585 44.9322 51.8028 44.3248C51.1471 43.7175 50.2585 43.3752 49.3312 43.3726H32.9993C32.072 43.3752 31.1834 43.7175 30.5277 44.3248C29.872 44.9322 29.5024 45.7551 29.4996 46.614V52.0164C27.8304 52.0169 26.2015 52.4921 24.8333 53.3778V36.8898ZM76.1623 46.614V52.0164H57.4972V46.614C57.4972 46.3275 57.6201 46.0526 57.8389 45.85C58.0576 45.6474 58.3544 45.5336 58.6638 45.5336H74.9957C75.3051 45.5336 75.6018 45.6474 75.8206 45.85C76.0394 46.0526 76.1623 46.3275 76.1623 46.614ZM50.4978 46.614V52.0164H31.8327V46.614C31.8327 46.3275 31.9556 46.0526 32.1744 45.85C32.3932 45.6474 32.6899 45.5336 32.9993 45.5336H49.3312C49.6406 45.5336 49.9373 45.6474 50.1561 45.85C50.3749 46.0526 50.4978 46.3275 50.4978 46.614ZM23.6668 59.5797C23.6668 58.1469 24.2813 56.7728 25.3752 55.7596C26.469 54.7465 27.9526 54.1773 29.4996 54.1773H78.4954C80.0424 54.1773 81.526 54.7465 82.6198 55.7596C83.7137 56.7728 84.3282 58.1469 84.3282 59.5797V62.8211H23.6668V59.5797ZM25.16 77.9477H23.6668V73.6258H26.7115L25.16 77.9477ZM84.3282 77.9477H82.835L81.2835 73.6258H84.3282V77.9477ZM86.6614 71.4649H21.3336V64.982H86.6614V71.4649Z" fill="black"/>
</svg>
